<svg width="57" height="43" viewBox="0 0 57 43" fill="none" xmlns="http://www.w3.org/2000/svg">
<path d="M37.7237 5.42407L28.4502 10.7803L37.7237 16.1437V5.42407Z" fill="url(#paint0_linear_81_27512)"/>
<path d="M37.7236 16.1437L46.9971 21.4999V10.7803L37.7236 16.1437Z" fill="url(#paint1_linear_81_27512)"/>
<path d="M46.9971 10.7803L37.7236 5.42407V16.1437L46.9971 10.7803Z" fill="url(#paint2_linear_81_27512)"/>
<path d="M56.2658 5.42407L46.9971 0.0678711L37.7236 5.42407L46.9971 10.7803L56.2658 5.42407Z" fill="url(#paint3_linear_81_27512)"/>
<path d="M56.2667 5.42407L46.998 10.7803V21.4999L56.2667 16.1437V5.42407Z" fill="url(#paint4_linear_81_27512)"/>
<path d="M9.90834 21.4999L0.639648 26.8609V37.5757L9.90834 32.2195V21.4999Z" fill="url(#paint5_linear_81_27512)"/>
<path d="M0.639648 37.5757L9.90834 42.9368L19.1819 37.5757L9.90834 32.2195L0.639648 37.5757Z" fill="url(#paint6_linear_81_27512)"/>
<path d="M19.1817 26.8609L9.9082 21.4999V32.2195L19.1817 26.8609Z" fill="url(#paint7_linear_81_27512)"/>
<path d="M9.9082 32.2195L19.1817 37.5757V26.8609L9.9082 32.2195Z" fill="url(#paint8_linear_81_27512)"/>
<path d="M19.1816 37.5757L28.4503 32.2195L19.1816 26.8609V37.5757Z" fill="url(#paint9_linear_81_27512)"/>
<path d="M37.7236 26.861L46.9971 21.5L37.7236 16.1438V26.861Z" fill="url(#paint10_linear_81_27512)"/>
<path d="M28.4502 32.2195L37.7237 37.5757V26.8608L28.4502 32.2195Z" fill="url(#paint11_linear_81_27512)"/>
<path d="M56.2667 37.5758V26.861L46.998 21.5V32.2196L56.2667 37.5758Z" fill="url(#paint12_linear_81_27512)"/>
<path d="M37.7236 37.5757L46.9971 42.9367L56.2658 37.5757L46.9971 32.2195L37.7236 37.5757Z" fill="url(#paint13_linear_81_27512)"/>
<path d="M37.7236 26.8608V37.5757L46.9971 32.2195L37.7236 26.8608Z" fill="url(#paint14_linear_81_27512)"/>
<path d="M46.9971 32.2196V21.5L37.7236 26.861L46.9971 32.2196Z" fill="url(#paint15_linear_81_27512)"/>
<path d="M19.1816 26.8609L28.4503 32.2195V21.4999L19.1816 26.8609Z" fill="url(#paint16_linear_81_27512)"/>
<path d="M37.7237 16.1437L28.4502 10.7803V21.4999L37.7237 16.1437Z" fill="url(#paint17_linear_81_27512)"/>
<path d="M28.4502 21.5V32.2196L37.7237 26.861L28.4502 21.5Z" fill="url(#paint18_linear_81_27512)"/>
<path d="M37.7237 26.861V16.1438L28.4502 21.5L37.7237 26.861Z" fill="url(#paint19_linear_81_27512)"/>
<path d="M19.1816 26.8609L28.4503 21.4999L19.1816 16.1437V26.8609Z" fill="url(#paint20_linear_81_27512)"/>
<path d="M28.4503 21.4999V10.7803L19.1816 16.1437L28.4503 21.4999Z" fill="url(#paint21_linear_81_27512)"/>
<path d="M28.4503 10.7803L19.1816 5.42407V16.1437L28.4503 10.7803Z" fill="url(#paint22_linear_81_27512)"/>
<path d="M19.1817 16.1437L9.9082 21.4999L19.1817 26.8609V16.1437Z" fill="url(#paint23_linear_81_27512)"/>
<path d="M19.1817 16.1437V5.42407L9.9082 10.7803L19.1817 16.1437Z" fill="url(#paint24_linear_81_27512)"/>
<path d="M9.9082 10.7803V21.4999L19.1817 16.1437L9.9082 10.7803Z" fill="url(#paint25_linear_81_27512)"/>
<path d="M0.639648 5.42407V16.1437L9.90834 21.4999V10.7803L0.639648 5.42407Z" fill="url(#paint26_linear_81_27512)"/>
<path d="M19.1819 5.42407L9.90834 0.0678711L0.639648 5.42407L9.90834 10.7803L19.1819 5.42407Z" fill="url(#paint27_linear_81_27512)"/>
<path d="M19.1816 26.8609V16.1437L28.4503 10.7803L37.7238 16.1437V26.8609L28.4503 32.2195L19.1816 26.8609Z" fill="url(#paint28_linear_81_27512)"/>
<g opacity="0.82">
<path d="M28.4503 10.7803L19.1816 16.1437L28.4503 21.4999L37.7238 16.1437L28.4503 10.7803Z" fill="url(#paint29_linear_81_27512)"/>
</g>
<g opacity="0.82">
<path d="M28.4502 21.4999V32.2195L37.7237 26.8609V16.1437L28.4502 21.4999Z" fill="url(#paint30_linear_81_27512)"/>
</g>
<g opacity="0.82">
<path d="M28.4503 32.2195L19.1816 26.8609V16.1437L28.4503 21.4999V32.2195Z" fill="url(#paint31_linear_81_27512)"/>
</g>
<path opacity="0.82" d="M9.9082 32.2195V21.4999L19.1817 16.1437V26.8609L9.9082 32.2195Z" fill="url(#paint32_linear_81_27512)"/>
<path opacity="0.82" d="M37.7236 26.861L46.9971 21.5L37.7236 16.1438V26.861Z" fill="url(#paint33_linear_81_27512)"/>
<path opacity="0.82" d="M46.9971 32.2196V21.5L37.7236 26.861L46.9971 32.2196Z" fill="url(#paint34_linear_81_27512)"/>
<path opacity="0.82" d="M9.9082 32.2195L19.1817 37.5757V26.8609L9.9082 32.2195Z" fill="url(#paint35_linear_81_27512)"/>
<path opacity="0.82" d="M19.1816 37.5757L28.4503 32.2195L19.1816 26.8609V37.5757Z" fill="url(#paint36_linear_81_27512)"/>
<path opacity="0.82" d="M37.7237 5.42407L28.4502 10.7803L37.7237 16.1437V5.42407Z" fill="url(#paint37_linear_81_27512)"/>
<path opacity="0.82" d="M28.4503 10.7803L19.1816 5.42407V16.1437L28.4503 10.7803Z" fill="url(#paint38_linear_81_27512)"/>
<path opacity="0.82" d="M19.1817 16.1437V5.42407L9.9082 10.7803L19.1817 16.1437Z" fill="url(#paint39_linear_81_27512)"/>
<path opacity="0.82" d="M46.9971 10.7803L37.7236 5.42407V16.1437L46.9971 10.7803Z" fill="url(#paint40_linear_81_27512)"/>
<g opacity="0.82">
<path d="M37.7238 16.1437L28.4503 21.4999L19.1816 16.1437L28.4503 10.7803L37.7238 16.1437Z" fill="url(#paint41_linear_81_27512)"/>
</g>
<path opacity="0.82" d="M28.4502 10.7803L37.7237 5.42407L46.9972 10.7803L37.7237 16.1437L28.4502 10.7803Z" fill="url(#paint42_linear_81_27512)"/>
<path opacity="0.82" d="M46.9972 10.7803V21.4999V32.2195L37.7261 37.5757L28.4502 32.2195L37.7237 26.8609V16.1437L46.9972 10.7803Z" fill="url(#paint43_linear_81_27512)"/>
<path opacity="0.82" d="M46.9972 10.7803V21.4999V32.2195L37.7261 37.5757L28.4502 32.2195L37.7237 26.8609V16.1437L46.9972 10.7803Z" fill="url(#paint44_linear_81_27512)"/>
<path opacity="0.82" d="M9.9082 21.4999V32.2195L19.1817 37.5757L28.4504 32.2195L19.1817 26.8609V16.1437L9.9082 21.4999Z" fill="url(#paint45_linear_81_27512)"/>
<g opacity="0.82">
<path d="M28.4502 21.4999L37.7237 26.8609L46.9972 21.4999L37.7237 16.1437L28.4502 21.4999Z" fill="url(#paint46_linear_81_27512)"/>
</g>
<g opacity="0.77">
<g opacity="0.69">
<path d="M28.4502 21.4999V32.2195L37.7237 26.8609V16.1437L28.4502 21.4999Z" fill="url(#paint47_linear_81_27512)"/>
</g>
<path d="M28.4503 32.2195L19.1816 26.8609V16.1437L28.4503 21.4999V32.2195Z" fill="url(#paint48_linear_81_27512)"/>
<g opacity="0.77">
<path d="M37.7238 16.1437L28.4503 21.4999L19.1816 16.1437L28.4503 10.7803L37.7238 16.1437Z" fill="url(#paint49_linear_81_27512)"/>
</g>
</g>
<defs>
<linearGradient id="paint0_linear_81_27512" x1="43.5675" y1="-1.05734" x2="8.59207" y2="47.2906" gradientUnits="userSpaceOnUse">
<stop stop-color="#FF3C2E"/>
<stop offset="1" stop-color="#872AFF"/>
</linearGradient>
<linearGradient id="paint1_linear_81_27512" x1="57.2238" y1="-10.3" x2="37.9914" y2="27.2969" gradientUnits="userSpaceOnUse">
<stop stop-color="#FF291A"/>
<stop offset="1" stop-color="#6B11FF"/>
</linearGradient>
<linearGradient id="paint2_linear_81_27512" x1="57.0649" y1="-12.2685" x2="22.0895" y2="36.0795" gradientUnits="userSpaceOnUse">
<stop stop-color="#FF493C"/>
<stop offset="1" stop-color="#8F38FF"/>
</linearGradient>
<linearGradient id="paint3_linear_81_27512" x1="55.3729" y1="-6.18465" x2="20.3999" y2="42.1634" gradientUnits="userSpaceOnUse">
<stop stop-color="#D8338B"/>
<stop offset="1" stop-color="#2F4BD8"/>
</linearGradient>
<linearGradient id="paint4_linear_81_27512" x1="62.409" y1="-7.64959" x2="43.1742" y2="29.9473" gradientUnits="userSpaceOnUse">
<stop stop-color="#D7157C"/>
<stop offset="1" stop-color="#0D39D6"/>
</linearGradient>
<linearGradient id="paint5_linear_81_27512" x1="32.636" y1="-6.58705" x2="-8.97528" y2="48.2325" gradientUnits="userSpaceOnUse">
<stop stop-color="#D4355C"/>
<stop offset="1" stop-color="#3C31D3"/>
</linearGradient>
<linearGradient id="paint6_linear_81_27512" x1="28.0751" y1="-5.97742" x2="7.5116" y2="43.2172" gradientUnits="userSpaceOnUse">
<stop stop-color="#D42D75"/>
<stop offset="1" stop-color="#283DCF"/>
</linearGradient>
<linearGradient id="paint7_linear_81_27512" x1="46.078" y1="-17.4561" x2="4.46911" y2="37.3659" gradientUnits="userSpaceOnUse">
<stop stop-color="#FF3C2A"/>
<stop offset="1" stop-color="#8226FF"/>
</linearGradient>
<linearGradient id="paint8_linear_81_27512" x1="60.7476" y1="-4.62817" x2="23.4871" y2="27.1775" gradientUnits="userSpaceOnUse">
<stop stop-color="#FF1E0E"/>
<stop offset="1" stop-color="#6305FF"/>
</linearGradient>
<linearGradient id="paint9_linear_81_27512" x1="47.5244" y1="-27.3083" x2="26.9634" y2="21.8864" gradientUnits="userSpaceOnUse">
<stop stop-color="#FF160E"/>
<stop offset="1" stop-color="#5B05FF"/>
</linearGradient>
<linearGradient id="paint10_linear_81_27512" x1="63.2986" y1="12.1779" x2="11.0764" y2="31.1735" gradientUnits="userSpaceOnUse">
<stop stop-color="#FF3E30"/>
<stop offset="1" stop-color="#832CFF"/>
</linearGradient>
<linearGradient id="paint11_linear_81_27512" x1="70.6732" y1="-0.946594" x2="38.1161" y2="30.0324" gradientUnits="userSpaceOnUse">
<stop stop-color="#E63740"/>
<stop offset="1" stop-color="#6032E1"/>
</linearGradient>
<linearGradient id="paint12_linear_81_27512" x1="69.8557" y1="4.29173" x2="34.8827" y2="52.6373" gradientUnits="userSpaceOnUse">
<stop stop-color="#D72837"/>
<stop offset="1" stop-color="#5425D7"/>
</linearGradient>
<linearGradient id="paint13_linear_81_27512" x1="78.6253" y1="7.40941" x2="46.0706" y2="38.3909" gradientUnits="userSpaceOnUse">
<stop stop-color="#D8344C"/>
<stop offset="1" stop-color="#492FD3"/>
</linearGradient>
<linearGradient id="paint14_linear_81_27512" x1="72.4108" y1="0.879769" x2="39.8561" y2="31.8588" gradientUnits="userSpaceOnUse">
<stop stop-color="#FF3D4A"/>
<stop offset="1" stop-color="#6738FA"/>
</linearGradient>
<linearGradient id="paint15_linear_81_27512" x1="69.2362" y1="1.71362" x2="27.7609" y2="44.5615" gradientUnits="userSpaceOnUse">
<stop stop-color="#FF3E30"/>
<stop offset="1" stop-color="#832CFF"/>
</linearGradient>
<linearGradient id="paint16_linear_81_27512" x1="48.1213" y1="-7.59902" x2="1.2975" y2="63.792" gradientUnits="userSpaceOnUse">
<stop stop-color="#FF493C"/>
<stop offset="1" stop-color="#9B37FF"/>
</linearGradient>
<linearGradient id="paint17_linear_81_27512" x1="31.413" y1="17.2545" x2="6.58477" y2="73.365" gradientUnits="userSpaceOnUse">
<stop stop-color="#FF7A3C"/>
<stop offset="1" stop-color="#CD37FF"/>
</linearGradient>
<linearGradient id="paint18_linear_81_27512" x1="47.3486" y1="-17.7981" x2="6.14046" y2="103.232" gradientUnits="userSpaceOnUse">
<stop stop-color="#FF603C"/>
<stop offset="1" stop-color="#B237FF"/>
</linearGradient>
<linearGradient id="paint19_linear_81_27512" x1="47.3486" y1="-17.7981" x2="6.14048" y2="103.232" gradientUnits="userSpaceOnUse">
<stop stop-color="#FF6D3C"/>
<stop offset="1" stop-color="#BF37FF"/>
</linearGradient>
<linearGradient id="paint20_linear_81_27512" x1="35.0715" y1="1.62435" x2="-11.7547" y2="73.0178" gradientUnits="userSpaceOnUse">
<stop stop-color="#FF493C"/>
<stop offset="1" stop-color="#9B37FF"/>
</linearGradient>
<linearGradient id="paint21_linear_81_27512" x1="25.6368" y1="14.698" x2="0.80852" y2="70.8109" gradientUnits="userSpaceOnUse">
<stop stop-color="#FF6D3C"/>
<stop offset="1" stop-color="#BF37FF"/>
</linearGradient>
<linearGradient id="paint22_linear_81_27512" x1="38.7227" y1="-12.5504" x2="3.74967" y2="35.7976" gradientUnits="userSpaceOnUse">
<stop stop-color="#FF4133"/>
<stop offset="1" stop-color="#8B2FFF"/>
</linearGradient>
<linearGradient id="paint23_linear_81_27512" x1="38.7468" y1="-7.77249" x2="-2.86448" y2="47.047" gradientUnits="userSpaceOnUse">
<stop stop-color="#FF2F20"/>
<stop offset="1" stop-color="#781CFF"/>
</linearGradient>
<linearGradient id="paint24_linear_81_27512" x1="40.9876" y1="-23.1712" x2="6.01457" y2="25.1767" gradientUnits="userSpaceOnUse">
<stop stop-color="#FF4B3E"/>
<stop offset="1" stop-color="#9139FF"/>
</linearGradient>
<linearGradient id="paint25_linear_81_27512" x1="13.3572" y1="-19.4342" x2="15.0167" y2="33.9205" gradientUnits="userSpaceOnUse">
<stop stop-color="#FF291A"/>
<stop offset="1" stop-color="#6B11FF"/>
</linearGradient>
<linearGradient id="paint26_linear_81_27512" x1="36.2198" y1="-32.2621" x2="-6.92668" y2="31.3519" gradientUnits="userSpaceOnUse">
<stop stop-color="#D7157C"/>
<stop offset="1" stop-color="#0D39D6"/>
</linearGradient>
<linearGradient id="paint27_linear_81_27512" x1="21.2252" y1="-14.4804" x2="-12.0484" y2="43.9248" gradientUnits="userSpaceOnUse">
<stop stop-color="#D8358C"/>
<stop offset="1" stop-color="#304AD8"/>
</linearGradient>
<linearGradient id="paint28_linear_81_27512" x1="39.9814" y1="-18.3813" x2="21.1126" y2="46.752" gradientUnits="userSpaceOnUse">
<stop stop-color="#F0E1BB"/>
<stop offset="1" stop-color="#FFF2A0" stop-opacity="0"/>
</linearGradient>
<linearGradient id="paint29_linear_81_27512" x1="38.5566" y1="8.38769" x2="14.4184" y2="26.8741" gradientUnits="userSpaceOnUse">
<stop stop-color="#FFE663"/>
<stop offset="1" stop-color="#FF6363" stop-opacity="0"/>
</linearGradient>
<linearGradient id="paint30_linear_81_27512" x1="53.4571" y1="-9.46393" x2="24.2785" y2="38.6222" gradientUnits="userSpaceOnUse">
<stop stop-color="#FFE663"/>
<stop offset="1" stop-color="#FF6363" stop-opacity="0"/>
</linearGradient>
<linearGradient id="paint31_linear_81_27512" x1="47.8782" y1="-2.26209" x2="21.7572" y2="26.382" gradientUnits="userSpaceOnUse">
<stop stop-color="#FFE663"/>
<stop offset="1" stop-color="#FF6363" stop-opacity="0"/>
</linearGradient>
<linearGradient id="paint32_linear_81_27512" x1="47.2309" y1="-27.9058" x2="10.9178" y2="29.8323" gradientUnits="userSpaceOnUse">
<stop stop-color="#FFAE3D"/>
<stop offset="1" stop-color="#FF3D3D" stop-opacity="0"/>
</linearGradient>
<linearGradient id="paint33_linear_81_27512" x1="20.2236" y1="10.6912" x2="49.5849" y2="28.5458" gradientUnits="userSpaceOnUse">
<stop stop-color="#FFAE3D"/>
<stop offset="1" stop-color="#FF3D3D" stop-opacity="0"/>
</linearGradient>
<linearGradient id="paint34_linear_81_27512" x1="72.9668" y1="9.5636" x2="39.9574" y2="31.0616" gradientUnits="userSpaceOnUse">
<stop stop-color="#FFAE3D"/>
<stop offset="1" stop-color="#FF3D3D" stop-opacity="0"/>
</linearGradient>
<linearGradient id="paint35_linear_81_27512" x1="45.2091" y1="-17.8609" x2="12.0687" y2="39.0358" gradientUnits="userSpaceOnUse">
<stop stop-color="#FFAE3D"/>
<stop offset="1" stop-color="#FF3D3D" stop-opacity="0"/>
</linearGradient>
<linearGradient id="paint36_linear_81_27512" x1="49.7339" y1="-8.78205" x2="15.4481" y2="41.801" gradientUnits="userSpaceOnUse">
<stop stop-color="#FFAE3D"/>
<stop offset="1" stop-color="#FF3D3D" stop-opacity="0"/>
</linearGradient>
<linearGradient id="paint37_linear_81_27512" x1="23.4271" y1="32.0027" x2="43.5031" y2="-6.44864" gradientUnits="userSpaceOnUse">
<stop stop-color="#FFAE3D"/>
<stop offset="1" stop-color="#FF3D3D" stop-opacity="0"/>
</linearGradient>
<linearGradient id="paint38_linear_81_27512" x1="41.4159" y1="-16.2802" x2="6.44292" y2="32.0654" gradientUnits="userSpaceOnUse">
<stop stop-color="#FFAE3D"/>
<stop offset="1" stop-color="#FF3D3D" stop-opacity="0"/>
</linearGradient>
<linearGradient id="paint39_linear_81_27512" x1="37.8683" y1="-18.8487" x2="2.89291" y2="29.4993" gradientUnits="userSpaceOnUse">
<stop stop-color="#FFAE3D"/>
<stop offset="1" stop-color="#FF3D3D" stop-opacity="0"/>
</linearGradient>
<linearGradient id="paint40_linear_81_27512" x1="28.5223" y1="34.6627" x2="48.5983" y2="-3.7862" gradientUnits="userSpaceOnUse">
<stop stop-color="#FFAE3D"/>
<stop offset="1" stop-color="#FF3D3D" stop-opacity="0"/>
</linearGradient>
<linearGradient id="paint41_linear_81_27512" x1="30.087" y1="11.1465" x2="10.1241" y2="72.0421" gradientUnits="userSpaceOnUse">
<stop stop-color="#FFE663"/>
<stop offset="1" stop-color="#FF6363" stop-opacity="0"/>
</linearGradient>
<linearGradient id="paint42_linear_81_27512" x1="32.7319" y1="22.5071" x2="44.687" y2="-5.51267" gradientUnits="userSpaceOnUse">
<stop stop-color="#FFAE3D"/>
<stop offset="1" stop-color="#FF3D3D" stop-opacity="0"/>
</linearGradient>
<linearGradient id="paint43_linear_81_27512" x1="50.2368" y1="-32.0717" x2="36.0405" y2="40.6998" gradientUnits="userSpaceOnUse">
<stop stop-color="#FFAE3D"/>
<stop offset="1" stop-color="#FF3D3D" stop-opacity="0"/>
</linearGradient>
<linearGradient id="paint44_linear_81_27512" x1="38.7635" y1="71.2309" x2="37.7021" y2="20.5675" gradientUnits="userSpaceOnUse">
<stop stop-color="#FFAE3D"/>
<stop offset="1" stop-color="#FF3D3D" stop-opacity="0"/>
</linearGradient>
<linearGradient id="paint45_linear_81_27512" x1="62.6586" y1="-3.1849" x2="0.750136" y2="39.5005" gradientUnits="userSpaceOnUse">
<stop stop-color="#FFAE3D"/>
<stop offset="1" stop-color="#FF3D3D" stop-opacity="0"/>
</linearGradient>
<linearGradient id="paint46_linear_81_27512" x1="20.9553" y1="10.7272" x2="67.3547" y2="40.4718" gradientUnits="userSpaceOnUse">
<stop stop-color="#FFE663"/>
<stop offset="1" stop-color="#FF6363" stop-opacity="0"/>
</linearGradient>
<linearGradient id="paint47_linear_81_27512" x1="47.9744" y1="2.67969" x2="4.27445" y2="65.6543" gradientUnits="userSpaceOnUse">
<stop stop-color="#FFFBBE"/>
<stop offset="1" stop-color="#FFD1D4" stop-opacity="0"/>
</linearGradient>
<linearGradient id="paint48_linear_81_27512" x1="45.1441" y1="-8.75555" x2="13.6411" y2="39.7852" gradientUnits="userSpaceOnUse">
<stop stop-color="#FFE7C6"/>
<stop offset="1" stop-color="#FFD7E8" stop-opacity="0"/>
</linearGradient>
<linearGradient id="paint49_linear_81_27512" x1="30.8187" y1="3.62181" x2="9.20091" y2="117.756" gradientUnits="userSpaceOnUse">
<stop stop-color="#EBEBEB"/>
<stop offset="1" stop-color="#F1F1F1" stop-opacity="0"/>
</linearGradient>
</defs>
</svg>
