<svg width="32" height="32" viewBox="0 0 32 32" fill="none" xmlns="http://www.w3.org/2000/svg">
<rect width="32" height="32" rx="16" fill="#FEFEFE" fill-opacity="0.16"/>
<path d="M9.14352 7C8.60247 7 8.08359 7.21493 7.70102 7.5975C7.31844 7.98008 7.10352 8.49896 7.10352 9.04C7.10352 9.58104 7.31844 10.0999 7.70102 10.4825C8.08359 10.8651 8.60247 11.08 9.14352 11.08C9.68456 11.08 10.2034 10.8651 10.586 10.4825C10.9686 10.0999 11.1835 9.58104 11.1835 9.04C11.1835 8.49896 10.9686 7.98008 10.586 7.5975C10.2034 7.21493 9.68456 7 9.14352 7ZM7.22352 12.76C7.19169 12.76 7.16117 12.7726 7.13866 12.7951C7.11616 12.8177 7.10352 12.8482 7.10352 12.88V25.36C7.10352 25.4262 7.15728 25.48 7.22352 25.48H11.0635C11.0953 25.48 11.1259 25.4674 11.1484 25.4449C11.1709 25.4223 11.1835 25.3918 11.1835 25.36V12.88C11.1835 12.8482 11.1709 12.8177 11.1484 12.7951C11.1259 12.7726 11.0953 12.76 11.0635 12.76H7.22352ZM13.4635 12.76C13.4317 12.76 13.4012 12.7726 13.3787 12.7951C13.3562 12.8177 13.3435 12.8482 13.3435 12.88V25.36C13.3435 25.4262 13.3973 25.48 13.4635 25.48H17.3035C17.3353 25.48 17.3659 25.4674 17.3884 25.4449C17.4109 25.4223 17.4235 25.3918 17.4235 25.36V18.64C17.4235 18.1626 17.6132 17.7048 17.9507 17.3672C18.2883 17.0296 18.7461 16.84 19.2235 16.84C19.7009 16.84 20.1587 17.0296 20.4963 17.3672C20.8339 17.7048 21.0235 18.1626 21.0235 18.64V25.36C21.0235 25.4262 21.0773 25.48 21.1435 25.48H24.9835C25.0153 25.48 25.0459 25.4674 25.0684 25.4449C25.0909 25.4223 25.1035 25.3918 25.1035 25.36V17.0848C25.1035 14.7549 23.0779 12.9328 20.7595 13.143C20.0422 13.2083 19.3395 13.3859 18.6773 13.6691L17.4235 14.2067V12.88C17.4235 12.8482 17.4109 12.8177 17.3884 12.7951C17.3659 12.7726 17.3353 12.76 17.3035 12.76H13.4635Z" fill="#FEFEFE"/>
</svg>
